<svg t="1757407938021" class="icon" viewBox="0 0 1025 1024" version="1.1" 
	xmlns="http://www.w3.org/2000/svg" p-id="8037" width="20" height="20">
	<path d="M957.824 384l-57.408 0c-35.168 0-65.984-29.728-68.384-64l0 0c0-182.656-147.264-320-331.2-320l-167.84 0c-183.808 0-332.864 148-332.992 330.656l0 362.784c0 182.656 149.184 330.528 332.992 330.528l358.432 0c183.936 0 332.608-147.872 332.608-330.528l0-234.368c0-36.512-29.44-75.072-66.208-75.072zM320.032 256l192 0c35.2 0 64 28.8 64 64s-28.8 64-64 64l-192 0c-35.2 0-64-28.8-64-64s28.8-64 64-64zM704.032 768l-384 0c-35.2 0-64-28.8-64-64s28.8-64 64-64l384 0c35.2 0 64 28.8 64 64s-28.8 64-64 64z" p-id="8038" fill="#515151"></path>
</svg>