<svg t="1756423312552" class="icon" viewBox="0 0 1024 1024" version="1.1"
  xmlns="http://www.w3.org/2000/svg" p-id="33137" width="20" height="20">
  <path
    d="M640 140.8H384c-32 0-57.6-25.6-57.6-57.6s25.6-57.6 57.6-57.6h256c32 0 57.6 25.6 57.6 57.6s-25.6 57.6-57.6 57.6z"
    p-id="33138" fill="#515151"></path>
  <path
    d="M812.8 108.8h-64c0 44.8-32 76.8-76.8 76.8h-320c-44.8 0-76.8-32-76.8-76.8h-64c-51.2 0-89.6 38.4-89.6 89.6V896c0 51.2 38.4 89.6 89.6 89.6h601.6c51.2 0 89.6-38.4 89.6-89.6V204.8c-6.4-51.2-44.8-96-89.6-96zM249.6 294.4h524.8c19.2 0 32 12.8 32 32s-12.8 32-32 32H249.6c-19.2 0-32-12.8-32-32s12.8-32 32-32z m0 166.4h524.8c19.2 0 32 12.8 32 32s-12.8 32-32 32H249.6c-19.2 6.4-32-12.8-32-25.6 0-19.2 12.8-38.4 32-38.4z m160 403.2H249.6c-19.2 0-32-12.8-32-32s12.8-32 32-32h160c19.2 0 32 12.8 32 32s-12.8 32-32 32z m0-166.4H249.6c-19.2 0-32-12.8-32-32s12.8-32 32-32h160c19.2 0 32 12.8 32 32s-12.8 32-32 32z m409.6 166.4c0 25.6-19.2 44.8-44.8 44.8h-192c-25.6 0-44.8-19.2-44.8-44.8v-19.2c0-32 44.8-64 76.8-76.8 6.4 0 12.8-6.4 19.2-6.4 6.4-6.4 0-12.8-6.4-19.2-19.2-12.8-32-38.4-32-64v-12.8c0-38.4 32-70.4 70.4-70.4h83.2c6.4 0 12.8 6.4 12.8 12.8v70.4c0 25.6-6.4 44.8-19.2 57.6 0 0-6.4 6.4-12.8 6.4-6.4 6.4-6.4 12.8-6.4 19.2 6.4 6.4 6.4 6.4 19.2 6.4 32 12.8 76.8 44.8 76.8 76.8v19.2z"
    p-id="33139" fill="#515151"></path>
</svg>