<svg t="1756422636950" class="icon" viewBox="0 0 1259 1024" version="1.1"
  xmlns="http://www.w3.org/2000/svg" p-id="19365" width="20" height="20">
  <path
    d="M702.247431 58.970526c-37.776394 16.763275-77.126805 33.605251-114.9819 50.368525-45.410374 19.675205-92.394765 40.609624-140.79577 61.544043h626.615941l-80.274838-125.921315a184.474726 184.474726 0 0 0-52.965653-33.60525c-16.605873-6.925672-37.776394-9.758902-63.511563-11.175517-25.735169-1.416615-54.539669 5.587758-86.2561 19.675205-21.249222 9.758902-49.975022 22.351033-87.830117 39.114309zM924.734654 477.344093h293.554064V315.062999a103.098076 103.098076 0 0 0-34.707062-76.969403 117.81513 117.81513 0 0 0-83.265469-32.188636H157.401643c-31.795132 0-60.599633 11.175517-83.265469 32.188636-22.665837 21.013119-34.785763 46.197382-34.785763 76.969403v597.496638c0 15.425361 2.990631 29.434107 9.050594 43.364152 7.63398 14.008746 16.684574 25.184263 27.309185 35.021866 12.041226 9.837603 24.161152 18.17989 39.350411 23.767648 15.110558 5.587758 30.221115 8.420988 46.90569 8.420988h942.835843c30.299816 0 60.599633-11.175517 81.770153-32.188636 10.54591-9.758902 18.101189-22.351033 24.239853-34.943165 5.981262-12.592131 9.050594-28.017492 9.050595-42.026239V695.738873h-295.128081c-30.299816 0-52.965653-5.509058-69.650227-16.763275a103.727683 103.727683 0 0 1-34.785764-37.776394 161.88759 161.88759 0 0 1-13.615242-55.956284c0-29.434107 12.119927-57.4516 34.785763-76.969404 22.744537-21.013119 49.975022-30.850722 83.26547-30.850722z"
    p-id="19366" fill="#515151"></path>
  <path
    d="M945.983876 632.778216a49.030612 49.030612 0 0 0 16.527172-36.438481 51.391637 51.391637 0 0 0-16.527172-36.359779 63.354161 63.354161 0 0 0-39.350411-14.008746 50.368526 50.368526 0 0 0-39.350411 14.008746 49.030612 49.030612 0 0 0-16.684574 36.359779c0 14.008746 6.059963 26.600878 16.605873 36.35978a57.215497 57.215497 0 0 0 39.350411 15.425361 57.215497 57.215497 0 0 0 39.350411-15.425361z"
    p-id="19367" fill="#515151"></path>
</svg>