<svg t="1756423106047" class="icon" viewBox="0 0 1137 1024" version="1.1"
  xmlns="http://www.w3.org/2000/svg" p-id="27907" width="20" height="20">
  <path
    d="M0 779.719111h136.135111s83.911111-91.932444 174.648889-112.071111h387.982222c31.175111 0 56.661333 25.201778 56.661334 56.035556a56.547556 56.547556 0 0 1-56.661334 56.035555h-165.546666a37.319111 37.319111 0 0 0-37.376 36.977778c0 20.309333 16.839111 36.977778 37.432888 36.977778l289.507556-0.568889 220.273778-177.493334a58.709333 58.709333 0 0 1 81.464889 7.395556 56.945778 56.945778 0 0 1-7.509334 80.497778L798.037333 1024H0v-244.280889z m631.182222-311.125333c74.126222-12.174222 112.924444-59.448889 112.924445-116.167111 0-70.087111-55.921778-95.004444-106.382223-113.891556-40.277333-14.791111-77.767111-24.917333-77.767111-52.508444 0-21.617778 16.384-36.408889 50.460445-36.408889 28.672 0 55.239111 13.482667 82.488889 32.312889l45.056-59.960889c-27.420444-20.138667-62.293333-39.822222-106.780445-45.112889V7.964444a7.964444 7.964444 0 0 0-7.964444-7.907555h-55.580445a7.964444 7.964444 0 0 0-7.964444 7.964444v73.159111c-58.140444 14.449778-93.866667 55.921778-93.866667 110.250667 0 62.691556 55.978667 91.648 104.391111 109.795556 40.220444 15.530667 79.758222 28.330667 79.758223 56.604444 0 23.608889-17.066667 39.822222-55.182223 39.822222-35.498667 0-68.266667-14.848-102.343111-41.130666l-45.681778 62.008889a247.125333 247.125333 0 0 0 112.867556 50.403555v71.793778c0 4.380444 3.640889 7.964444 8.021333 7.964444h55.523556a7.964444 7.964444 0 0 0 8.021333-7.964444V468.593778z"
    fill="#515151" p-id="27908"></path>
</svg>